<svg width="264" height="563" viewBox="0 0 264 563" fill="none" xmlns="http://www.w3.org/2000/svg">
<path d="M193.026 107.259C169.801 95.9092 165.616 95.0564 189.713 115.031L193.026 107.259Z" fill="#FFFFFE"/>
<path d="M190.369 104.641C171.167 99.3017 166.839 97.0531 185.48 112.781" stroke="#232540" stroke-width="4" stroke-linecap="round" stroke-linejoin="round"/>
<ellipse rx="1.90307" ry="4.52103" transform="matrix(-0.799949 -0.629313 -0.562035 0.805874 187.065 96.9388)" fill="#232540"/>
<ellipse rx="1.90307" ry="4.52103" transform="matrix(-0.799949 -0.629313 -0.562035 0.805874 201.319 107.12)" fill="#232540"/>
<path d="M188.218 91.3587C178.222 104.113 163.692 130.481 189.528 137.965L189.528 175.379L222.593 175.379L218.207 150.387L215.869 136.782L222.051 134.231C232.275 130.264 243.04 108.55 223.589 89.3259C212.055 79.8098 198.983 79.8106 188.218 91.3587Z" fill="#FFFFFE"/>
<path d="M188.218 91.3587L196.292 96.332L189.528 108.635C193.873 104.355 199.678 107.03 200.645 108.635C206.257 117.943 197.855 125.924 191.191 126.491L215.869 136.782M188.218 91.3587C178.222 104.113 163.692 130.481 189.528 137.965M188.218 91.3587C198.983 79.8106 212.055 79.8098 223.589 89.3259C243.04 108.55 232.275 130.264 222.051 134.231L215.869 136.782M189.528 137.965C193.117 138.815 185.837 142.727 189.528 137.965ZM189.528 137.965C186.915 140.232 195.56 140.686 189.528 137.965ZM189.528 137.965L189.528 175.379L222.593 175.379L218.207 150.387L215.869 136.782" stroke="#232540" stroke-width="4" stroke-linecap="round" stroke-linejoin="round"/>
<path d="M199.678 107.875C207.417 112.914 199.086 126.254 192.422 126.821L215.869 136.785L222.051 134.234C232.275 130.266 243.04 108.553 223.589 89.3284C212.055 79.8123 198.983 79.8131 188.218 91.3612L195.808 96.8844L190.726 105.96C190.726 105.96 197.289 106.319 199.678 107.875Z" fill="#232540"/>
<path d="M14.8477 122.873C13.5714 124.978 31.9302 152.409 39.6645 163.568L45.122 160.888L57.2917 154.705C57.1755 151.811 56.8609 155.546 55.8222 151.705C54.5237 146.904 56.2239 121.754 53.33 119.584C51.0148 117.848 48.7637 129.428 47.9275 135.435C44.4699 124.166 37.1392 102.083 35.4769 103.898C33.8147 105.713 37.297 121.338 39.2458 128.924C36.0107 120.374 28.8355 103.51 26.0158 104.457C23.4728 105.312 28.7817 119.319 32.613 128.251C29.2448 120.821 23.3913 109.849 20.634 109.806C18.6776 109.776 24.6474 127.926 27.8776 134.942C21.5928 125.635 16.4432 120.242 14.8477 122.873Z" fill="#FFFFFE" stroke="#232540" stroke-width="4" stroke-linecap="round" stroke-linejoin="round"/>
<path d="M183.716 149.286L190.004 161.589L219.993 158.379L224.347 147.147L183.716 149.286Z" fill="#BFCC94" stroke="#BFCC94" stroke-width="4"/>
<path d="M313.982 341.838C288.855 168.434 230.543 143.5 204.528 152.709C155.036 152.709 108.399 190.252 91.2673 209.024L58.9071 142.085L32.8706 162.002C36.0698 176.99 72.2319 247.274 86.5084 253.65C97.9297 258.75 133.145 234.524 149.325 221.774L149.325 336.526L266.393 336.526L261.634 283.4L286.38 352.464L313.982 341.838Z" fill="#BFCC94"/>
<mask id="mask0" mask-type="alpha" maskUnits="userSpaceOnUse" x="32" y="142" width="282" height="211">
<path d="M313.982 341.838C288.855 168.434 230.543 143.5 204.528 152.709C155.036 152.709 108.399 190.252 91.2673 209.024L58.9071 142.085L32.8706 162.002C36.0698 176.99 72.2319 247.274 86.5084 253.65C97.9297 258.75 133.145 234.524 149.325 221.774L149.325 336.526L266.393 336.526L261.634 283.4L286.38 352.464L313.982 341.838Z" fill="#51B6FF"/>
</mask>
<g mask="url(#mask0)">
<path d="M33.2081 285.739C48.1645 254.04 104.923 158.57 115.216 193.895C125.51 221.369 136.085 239.891 147.839 242.418C166.163 246.358 178.725 228.702 189.524 215.103C205.162 195.407 230.371 145.368 260.83 161.218C287.228 174.955 320.468 202.982 342.365 166.66" stroke="#FFFFFE" stroke-width="4" stroke-linecap="round" stroke-linejoin="round"/>
<path d="M64.4712 310.708C78.8453 290.605 89.9631 276.862 113.103 270.374C128.161 266.153 144.813 262.692 160.383 262.692C185.623 262.692 204.107 269.485 223.874 246.26C234.794 233.429 236.268 207.952 248.636 196.425C259.97 185.86 276.427 191.866 290.26 187.787" stroke="#FFFFFE" stroke-width="4" stroke-linecap="round" stroke-linejoin="round"/>
<path d="M142.629 341.438C148.078 331.908 153.233 319.72 162.313 313.695C177.116 303.874 194.094 297.319 210.944 293.529C221.808 291.085 233.113 291.56 243.751 289.154C257.643 286.012 254.47 275.587 260.387 262.117C262.587 257.106 283.958 252.346 302.607 247.423C319.46 242.975 331.085 246.975 319.176 259.702C294.564 286.005 250.81 326.095 274.749 341.438" stroke="#FFFFFE" stroke-width="4" stroke-linecap="round" stroke-linejoin="round"/>
<path d="M35.8191 221.558C41.8405 193.592 70.0146 183.38 92.9417 178.451C99.9637 176.941 106.908 177.835 113.977 177.277C121.453 176.686 124.735 169.329 129.608 163.939" stroke="#FFFFFE" stroke-width="4" stroke-linecap="round" stroke-linejoin="round"/>
</g>
<path d="M261.106 277.125C260.461 245.923 247.756 176.994 229.182 157.31" stroke="#232540" stroke-width="4" stroke-linecap="round" stroke-linejoin="round"/>
<path d="M151.789 220.962C156.143 218.287 160.98 214.543 164.849 210.264" stroke="#232540" stroke-width="4" stroke-linecap="round" stroke-linejoin="round"/>
</svg>
